<mxfile host="app.diagrams.net" modified="2023-07-29T07:40:07.790Z" agent="Mozilla/5.0 (Windows NT 10.0; Win64; x64; rv:109.0) Gecko/20100101 Firefox/115.0" etag="NRI6UWjdi4nc8bYO3-cR" version="21.6.5" type="device">
  <diagram name="Page-1" id="VZIIqRRXdtm2IghGHygO">
    <mxGraphModel dx="794" dy="432" grid="1" gridSize="10" guides="1" tooltips="1" connect="1" arrows="1" fold="1" page="1" pageScale="1" pageWidth="1100" pageHeight="850" math="0" shadow="0">
      <root>
        <mxCell id="0" />
        <mxCell id="1" parent="0" />
        <mxCell id="Sioro_faqgcx9pmIhb5Y-36" value="" style="ellipse;whiteSpace=wrap;html=1;aspect=fixed;" vertex="1" parent="1">
          <mxGeometry x="120" y="50" width="50" height="50" as="geometry" />
        </mxCell>
        <mxCell id="Sioro_faqgcx9pmIhb5Y-37" value="&lt;font style=&quot;font-size: 20px;&quot;&gt;Balanced Tree&lt;/font&gt;" style="text;html=1;strokeColor=none;fillColor=none;align=center;verticalAlign=middle;whiteSpace=wrap;rounded=0;" vertex="1" parent="1">
          <mxGeometry width="200" height="40" as="geometry" />
        </mxCell>
        <mxCell id="Sioro_faqgcx9pmIhb5Y-40" value="" style="ellipse;whiteSpace=wrap;html=1;aspect=fixed;" vertex="1" parent="1">
          <mxGeometry x="70" y="120" width="50" height="50" as="geometry" />
        </mxCell>
        <mxCell id="Sioro_faqgcx9pmIhb5Y-41" value="" style="ellipse;whiteSpace=wrap;html=1;aspect=fixed;" vertex="1" parent="1">
          <mxGeometry x="160" y="120" width="50" height="50" as="geometry" />
        </mxCell>
        <mxCell id="Sioro_faqgcx9pmIhb5Y-42" value="" style="ellipse;whiteSpace=wrap;html=1;aspect=fixed;" vertex="1" parent="1">
          <mxGeometry x="240" y="190" width="50" height="50" as="geometry" />
        </mxCell>
        <mxCell id="Sioro_faqgcx9pmIhb5Y-43" value="" style="ellipse;whiteSpace=wrap;html=1;aspect=fixed;" vertex="1" parent="1">
          <mxGeometry x="160" y="190" width="50" height="50" as="geometry" />
        </mxCell>
        <mxCell id="Sioro_faqgcx9pmIhb5Y-44" value="" style="ellipse;whiteSpace=wrap;html=1;aspect=fixed;" vertex="1" parent="1">
          <mxGeometry x="70" y="190" width="50" height="50" as="geometry" />
        </mxCell>
        <mxCell id="Sioro_faqgcx9pmIhb5Y-45" value="" style="ellipse;whiteSpace=wrap;html=1;aspect=fixed;" vertex="1" parent="1">
          <mxGeometry y="190" width="50" height="50" as="geometry" />
        </mxCell>
        <mxCell id="Sioro_faqgcx9pmIhb5Y-46" value="" style="endArrow=classic;html=1;rounded=0;entryX=0.5;entryY=0;entryDx=0;entryDy=0;exitX=0;exitY=1;exitDx=0;exitDy=0;" edge="1" parent="1" source="Sioro_faqgcx9pmIhb5Y-36" target="Sioro_faqgcx9pmIhb5Y-40">
          <mxGeometry width="50" height="50" relative="1" as="geometry">
            <mxPoint x="60" y="100" as="sourcePoint" />
            <mxPoint x="110" y="50" as="targetPoint" />
          </mxGeometry>
        </mxCell>
        <mxCell id="Sioro_faqgcx9pmIhb5Y-47" value="" style="endArrow=classic;html=1;rounded=0;exitX=1;exitY=1;exitDx=0;exitDy=0;entryX=0.5;entryY=0;entryDx=0;entryDy=0;" edge="1" parent="1" source="Sioro_faqgcx9pmIhb5Y-36" target="Sioro_faqgcx9pmIhb5Y-41">
          <mxGeometry width="50" height="50" relative="1" as="geometry">
            <mxPoint x="190" y="110" as="sourcePoint" />
            <mxPoint x="240" y="60" as="targetPoint" />
          </mxGeometry>
        </mxCell>
        <mxCell id="Sioro_faqgcx9pmIhb5Y-48" value="" style="endArrow=classic;html=1;rounded=0;exitX=0;exitY=1;exitDx=0;exitDy=0;entryX=0.5;entryY=0;entryDx=0;entryDy=0;" edge="1" parent="1" source="Sioro_faqgcx9pmIhb5Y-40" target="Sioro_faqgcx9pmIhb5Y-45">
          <mxGeometry width="50" height="50" relative="1" as="geometry">
            <mxPoint x="40" y="170" as="sourcePoint" />
            <mxPoint x="90" y="120" as="targetPoint" />
          </mxGeometry>
        </mxCell>
        <mxCell id="Sioro_faqgcx9pmIhb5Y-49" value="" style="endArrow=classic;html=1;rounded=0;exitX=0.5;exitY=1;exitDx=0;exitDy=0;entryX=0.5;entryY=0;entryDx=0;entryDy=0;" edge="1" parent="1" source="Sioro_faqgcx9pmIhb5Y-40" target="Sioro_faqgcx9pmIhb5Y-44">
          <mxGeometry width="50" height="50" relative="1" as="geometry">
            <mxPoint x="100" y="170" as="sourcePoint" />
            <mxPoint x="150" y="120" as="targetPoint" />
          </mxGeometry>
        </mxCell>
        <mxCell id="Sioro_faqgcx9pmIhb5Y-50" value="" style="endArrow=classic;html=1;rounded=0;exitX=0.5;exitY=1;exitDx=0;exitDy=0;entryX=0.5;entryY=0;entryDx=0;entryDy=0;" edge="1" parent="1" source="Sioro_faqgcx9pmIhb5Y-41" target="Sioro_faqgcx9pmIhb5Y-43">
          <mxGeometry width="50" height="50" relative="1" as="geometry">
            <mxPoint x="200" y="180" as="sourcePoint" />
            <mxPoint x="250" y="130" as="targetPoint" />
          </mxGeometry>
        </mxCell>
        <mxCell id="Sioro_faqgcx9pmIhb5Y-51" value="" style="endArrow=classic;html=1;rounded=0;exitX=1;exitY=1;exitDx=0;exitDy=0;entryX=0;entryY=0;entryDx=0;entryDy=0;" edge="1" parent="1" source="Sioro_faqgcx9pmIhb5Y-41" target="Sioro_faqgcx9pmIhb5Y-42">
          <mxGeometry width="50" height="50" relative="1" as="geometry">
            <mxPoint x="240" y="180" as="sourcePoint" />
            <mxPoint x="290" y="130" as="targetPoint" />
          </mxGeometry>
        </mxCell>
        <mxCell id="Sioro_faqgcx9pmIhb5Y-52" value="" style="ellipse;whiteSpace=wrap;html=1;aspect=fixed;" vertex="1" parent="1">
          <mxGeometry x="454" y="50" width="50" height="50" as="geometry" />
        </mxCell>
        <mxCell id="Sioro_faqgcx9pmIhb5Y-53" value="&lt;font style=&quot;font-size: 20px;&quot;&gt;Unbalanced Tree&lt;/font&gt;" style="text;html=1;strokeColor=none;fillColor=none;align=center;verticalAlign=middle;whiteSpace=wrap;rounded=0;" vertex="1" parent="1">
          <mxGeometry x="334" width="200" height="40" as="geometry" />
        </mxCell>
        <mxCell id="Sioro_faqgcx9pmIhb5Y-54" value="" style="ellipse;whiteSpace=wrap;html=1;aspect=fixed;" vertex="1" parent="1">
          <mxGeometry x="404" y="120" width="50" height="50" as="geometry" />
        </mxCell>
        <mxCell id="Sioro_faqgcx9pmIhb5Y-55" value="" style="ellipse;whiteSpace=wrap;html=1;aspect=fixed;" vertex="1" parent="1">
          <mxGeometry x="494" y="120" width="50" height="50" as="geometry" />
        </mxCell>
        <mxCell id="Sioro_faqgcx9pmIhb5Y-56" value="" style="ellipse;whiteSpace=wrap;html=1;aspect=fixed;" vertex="1" parent="1">
          <mxGeometry x="384" y="270" width="50" height="50" as="geometry" />
        </mxCell>
        <mxCell id="Sioro_faqgcx9pmIhb5Y-57" value="" style="ellipse;whiteSpace=wrap;html=1;aspect=fixed;" vertex="1" parent="1">
          <mxGeometry x="300" y="270" width="50" height="50" as="geometry" />
        </mxCell>
        <mxCell id="Sioro_faqgcx9pmIhb5Y-58" value="" style="ellipse;whiteSpace=wrap;html=1;aspect=fixed;" vertex="1" parent="1">
          <mxGeometry x="404" y="190" width="50" height="50" as="geometry" />
        </mxCell>
        <mxCell id="Sioro_faqgcx9pmIhb5Y-59" value="" style="ellipse;whiteSpace=wrap;html=1;aspect=fixed;" vertex="1" parent="1">
          <mxGeometry x="334" y="190" width="50" height="50" as="geometry" />
        </mxCell>
        <mxCell id="Sioro_faqgcx9pmIhb5Y-60" value="" style="endArrow=classic;html=1;rounded=0;entryX=0.5;entryY=0;entryDx=0;entryDy=0;exitX=0;exitY=1;exitDx=0;exitDy=0;" edge="1" source="Sioro_faqgcx9pmIhb5Y-52" target="Sioro_faqgcx9pmIhb5Y-54" parent="1">
          <mxGeometry width="50" height="50" relative="1" as="geometry">
            <mxPoint x="394" y="100" as="sourcePoint" />
            <mxPoint x="444" y="50" as="targetPoint" />
          </mxGeometry>
        </mxCell>
        <mxCell id="Sioro_faqgcx9pmIhb5Y-61" value="" style="endArrow=classic;html=1;rounded=0;exitX=1;exitY=1;exitDx=0;exitDy=0;entryX=0.5;entryY=0;entryDx=0;entryDy=0;" edge="1" source="Sioro_faqgcx9pmIhb5Y-52" target="Sioro_faqgcx9pmIhb5Y-55" parent="1">
          <mxGeometry width="50" height="50" relative="1" as="geometry">
            <mxPoint x="524" y="110" as="sourcePoint" />
            <mxPoint x="574" y="60" as="targetPoint" />
          </mxGeometry>
        </mxCell>
        <mxCell id="Sioro_faqgcx9pmIhb5Y-62" value="" style="endArrow=classic;html=1;rounded=0;exitX=0;exitY=1;exitDx=0;exitDy=0;entryX=0.5;entryY=0;entryDx=0;entryDy=0;" edge="1" source="Sioro_faqgcx9pmIhb5Y-54" target="Sioro_faqgcx9pmIhb5Y-59" parent="1">
          <mxGeometry width="50" height="50" relative="1" as="geometry">
            <mxPoint x="374" y="170" as="sourcePoint" />
            <mxPoint x="424" y="120" as="targetPoint" />
          </mxGeometry>
        </mxCell>
        <mxCell id="Sioro_faqgcx9pmIhb5Y-63" value="" style="endArrow=classic;html=1;rounded=0;exitX=0.5;exitY=1;exitDx=0;exitDy=0;entryX=0.5;entryY=0;entryDx=0;entryDy=0;" edge="1" source="Sioro_faqgcx9pmIhb5Y-54" target="Sioro_faqgcx9pmIhb5Y-58" parent="1">
          <mxGeometry width="50" height="50" relative="1" as="geometry">
            <mxPoint x="434" y="170" as="sourcePoint" />
            <mxPoint x="484" y="120" as="targetPoint" />
          </mxGeometry>
        </mxCell>
        <mxCell id="Sioro_faqgcx9pmIhb5Y-64" value="" style="endArrow=classic;html=1;rounded=0;exitX=0;exitY=1;exitDx=0;exitDy=0;entryX=0.5;entryY=0;entryDx=0;entryDy=0;" edge="1" source="Sioro_faqgcx9pmIhb5Y-59" target="Sioro_faqgcx9pmIhb5Y-57" parent="1">
          <mxGeometry width="50" height="50" relative="1" as="geometry">
            <mxPoint x="534" y="180" as="sourcePoint" />
            <mxPoint x="584" y="130" as="targetPoint" />
          </mxGeometry>
        </mxCell>
        <mxCell id="Sioro_faqgcx9pmIhb5Y-65" value="" style="endArrow=classic;html=1;rounded=0;exitX=1;exitY=1;exitDx=0;exitDy=0;entryX=0;entryY=0;entryDx=0;entryDy=0;" edge="1" source="Sioro_faqgcx9pmIhb5Y-59" target="Sioro_faqgcx9pmIhb5Y-56" parent="1">
          <mxGeometry width="50" height="50" relative="1" as="geometry">
            <mxPoint x="574" y="180" as="sourcePoint" />
            <mxPoint x="624" y="130" as="targetPoint" />
          </mxGeometry>
        </mxCell>
        <mxCell id="Sioro_faqgcx9pmIhb5Y-66" value="" style="ellipse;whiteSpace=wrap;html=1;aspect=fixed;" vertex="1" parent="1">
          <mxGeometry x="460" y="270" width="50" height="50" as="geometry" />
        </mxCell>
        <mxCell id="Sioro_faqgcx9pmIhb5Y-67" value="" style="ellipse;whiteSpace=wrap;html=1;aspect=fixed;" vertex="1" parent="1">
          <mxGeometry x="525" y="340" width="50" height="50" as="geometry" />
        </mxCell>
        <mxCell id="Sioro_faqgcx9pmIhb5Y-68" value="" style="endArrow=classic;html=1;rounded=0;exitX=1;exitY=1;exitDx=0;exitDy=0;entryX=0.36;entryY=0;entryDx=0;entryDy=0;entryPerimeter=0;" edge="1" parent="1" source="Sioro_faqgcx9pmIhb5Y-58" target="Sioro_faqgcx9pmIhb5Y-66">
          <mxGeometry width="50" height="50" relative="1" as="geometry">
            <mxPoint x="470" y="260" as="sourcePoint" />
            <mxPoint x="520" y="210" as="targetPoint" />
          </mxGeometry>
        </mxCell>
        <mxCell id="Sioro_faqgcx9pmIhb5Y-69" value="" style="endArrow=classic;html=1;rounded=0;exitX=1;exitY=1;exitDx=0;exitDy=0;entryX=0.5;entryY=0;entryDx=0;entryDy=0;" edge="1" parent="1" source="Sioro_faqgcx9pmIhb5Y-66" target="Sioro_faqgcx9pmIhb5Y-67">
          <mxGeometry width="50" height="50" relative="1" as="geometry">
            <mxPoint x="520" y="340" as="sourcePoint" />
            <mxPoint x="570" y="290" as="targetPoint" />
          </mxGeometry>
        </mxCell>
      </root>
    </mxGraphModel>
  </diagram>
</mxfile>
